HIERARCHY
ROOT Hips
{
 OFFSET 0.000000 0.000000 0.000000
 CHANNELS 6 Xposition Yposition Zposition Yrotation Xrotation Zrotation
 JOINT Chest
 {
  OFFSET 0.000000 9.588913 -0.003946
  CHANNELS 3 Yrotation Xrotation Zrotation
  JOINT Chest2
  {
   OFFSET 0.000000 9.541882 0.008053
   CHANNELS 3 Yrotation Xrotation Zrotation
   JOINT Chest3
   {
    OFFSET 0.000000 9.501360 0.000000
    CHANNELS 3 Yrotation Xrotation Zrotation
    JOINT Chest4
    {
     OFFSET 0.000000 9.491660 0.000000
     CHANNELS 3 Yrotation Xrotation Zrotation
     JOINT Neck
     {
      OFFSET 0.000000 14.331917 0.000000
      CHANNELS 3 Yrotation Xrotation Zrotation
      JOINT Head
      {
       OFFSET 0.000000 8.884799 0.017034
       CHANNELS 3 Yrotation Xrotation Zrotation
       End Site
       {
        OFFSET 0.000000 16.896195 0.008993
       }
      }
     }
     JOINT RightCollar
     {
      OFFSET -2.923010 9.499495 0.000000
      CHANNELS 3 Yrotation Xrotation Zrotation
      JOINT RightShoulder
      {
       OFFSET -13.795216 0.000000 0.000000
       CHANNELS 3 Yrotation Xrotation Zrotation
       JOINT RightElbow
       {
        OFFSET -30.272209 0.000000 0.000000
        CHANNELS 3 Yrotation Xrotation Zrotation
        JOINT RightWrist
        {
         OFFSET -24.478199 0.000000 0.000000
         CHANNELS 3 Yrotation Xrotation Zrotation
         End Site
         {
          OFFSET -18.090752 0.000000 0.000000
         }
        }
       }
      }
     }
     JOINT LeftCollar
     {
      OFFSET 2.923010 9.499495 0.000000
      CHANNELS 3 Yrotation Xrotation Zrotation
      JOINT LeftShoulder
      {
       OFFSET 13.795216 0.000000 0.000000
       CHANNELS 3 Yrotation Xrotation Zrotation
       JOINT LeftElbow
       {
        OFFSET 30.272209 0.000000 0.000000
        CHANNELS 3 Yrotation Xrotation Zrotation
        JOINT LeftWrist
        {
         OFFSET 24.478199 0.000000 0.000000
         CHANNELS 3 Yrotation Xrotation Zrotation
         End Site
         {
          OFFSET 18.090752 0.000000 0.000000
         }
        }
       }
      }
     }
    }
   }
  }
 }
 JOINT RightHip
 {
  OFFSET -7.826875 0.019532 0.001973
  CHANNELS 3 Yrotation Xrotation Zrotation
  JOINT RightKnee
  {
   OFFSET 0.000000 -40.546152 -0.001885
   CHANNELS 3 Yrotation Xrotation Zrotation
   JOINT RightAnkle
   {
    OFFSET 0.000000 -39.417092 -0.003189
    CHANNELS 3 Yrotation Xrotation Zrotation
    JOINT RightToe
    {
     OFFSET 0.000000 -7.579396 17.243563
     CHANNELS 3 Yrotation Xrotation Zrotation
     End Site
     {
      OFFSET 0.000000 -1.500329 6.694466
     }
    }
   }
  }
 }
 JOINT LeftHip
 {
  OFFSET 7.826875 0.019532 0.001973
  CHANNELS 3 Yrotation Xrotation Zrotation
  JOINT LeftKnee
  {
   OFFSET 0.000000 -40.546152 -0.001885
   CHANNELS 3 Yrotation Xrotation Zrotation
   JOINT LeftAnkle
   {
    OFFSET 0.000000 -39.417092 -0.003189
    CHANNELS 3 Yrotation Xrotation Zrotation
    JOINT LeftToe
    {
     OFFSET 0.000000 -7.579396 17.243563
     CHANNELS 3 Yrotation Xrotation Zrotation
     End Site
     {
      OFFSET 0.000000 -1.500329 6.694466
     }
    }
   }
  }
 }
}
MOTION
Frames: 14
Frame Time: 0.008333
6.386771 89.143480 -18.762676 142.543465 -4.402095 1.334227 0.044074 2.120167 -0.219071 0.031624 1.210371 -0.197591 0.038880 1.512980 -0.246898 0.031624 1.210371 -0.197591 36.314396 15.872971 -4.756963 51.454429 -2.445715 -15.434059 4.551992 -1.224190 0.135554 -5.139005 0.403654 89.938314 4.239501 5.663740 -1.004990 -1.757228 -2.000840 -1.460686 -0.695290 -4.282285 1.006689 -2.131798 -0.479273 -89.008809 0.698174 12.055755 1.052718 -1.311994 0.193486 0.238893 -11.589698 9.068418 -1.564351 -1.244107 -1.946193 -1.320880 -5.327010 -2.902761 1.323114 -0.005285 0.162556 -0.007829 -1.699626 6.903296 -0.503005 -0.511221 3.269686 0.793810 4.597255 -5.412058 -0.926790 -0.006381 -0.129923 -0.001718
6.378801 89.143531 -18.762573 142.513887 -4.415474 1.329134 0.051634 2.124105 -0.227544 0.035849 1.212661 -0.201299 0.044148 1.515846 -0.251519 0.035849 1.212661 -0.201299 36.317097 15.899360 -4.742295 51.448955 -2.413288 -15.409659 4.564294 -1.246198 0.130252 -5.112662 0.421310 89.962786 4.229638 5.644822 -1.007949 -1.752104 -1.998348 -1.463088 -0.689893 -4.272898 0.997430 -2.150139 -0.490356 -88.993529 0.723165 12.033173 1.066362 -1.323616 0.189401 0.250052 -11.565758 9.068744 -1.560222 -1.241729 -1.931321 -1.324217 -5.340209 -2.904203 1.328408 -0.006773 0.162050 -0.008376 -1.682628 6.919966 -0.504870 -0.509077 3.264163 0.796145 4.614075 -5.413155 -0.924817 -0.006724 -0.128999 -0.000309
6.369910 89.143745 -18.762836 142.485496 -4.425433 1.325375 0.056993 2.126043 -0.235977 0.038591 1.213740 -0.205251 0.047562 1.517196 -0.256451 0.038591 1.213740 -0.205251 36.320934 15.928874 -4.722187 51.442830 -2.377758 -15.377534 4.584514 -1.269701 0.126519 -5.088764 0.439774 89.984552 4.219215 5.629575 -1.008212 -1.749110 -1.995201 -1.466230 -0.681592 -4.262278 0.987857 -2.168077 -0.508458 -88.979953 0.756523 11.997568 1.081314 -1.328075 0.186012 0.260758 -11.546357 9.065225 -1.559134 -1.239532 -1.916729 -1.324289 -5.350444 -2.905934 1.331432 -0.008024 0.161567 -0.008177 -1.667880 6.931875 -0.506911 -0.504267 3.260335 0.794148 4.631275 -5.413896 -0.920920 -0.006200 -0.128932 0.001627
6.359942 89.144034 -18.763254 142.462063 -4.429961 1.323696 0.059343 2.125666 -0.244272 0.039358 1.213651 -0.209836 0.048506 1.517085 -0.262180 0.039358 1.213651 -0.209836 36.323053 15.956925 -4.701886 51.433800 -2.344922 -15.345008 4.610151 -1.291722 0.123343 -5.066733 0.451347 90.000875 4.203291 5.624567 -1.004422 -1.750459 -1.989041 -1.469641 -0.671560 -4.250954 0.981418 -2.182051 -0.529118 -88.968601 0.791516 11.957828 1.096108 -1.323571 0.183834 0.266794 -11.536256 9.055848 -1.565318 -1.234704 -1.901794 -1.320514 -5.344363 -2.908976 1.333829 -0.007394 0.161280 -0.006840 -1.660561 6.937176 -0.509896 -0.498298 3.256874 0.790977 4.641409 -5.413222 -0.916718 -0.005712 -0.129604 0.003209
6.349237 89.144264 -18.763566 142.441807 -4.428708 1.322948 0.059495 2.123622 -0.252193 0.038923 1.212632 -0.214571 0.047947 1.515812 -0.268100 0.038923 1.212632 -0.214571 36.322013 15.979141 -4.686046 51.421872 -2.319910 -15.318905 4.637611 -1.307729 0.121158 -5.044950 0.447367 90.010744 4.176320 5.632663 -1.001368 -1.754717 -1.983919 -1.467350 -0.658719 -4.239188 0.976081 -2.186884 -0.548699 -88.958031 0.821024 11.925573 1.109532 -1.311814 0.188570 0.266661 -11.530554 9.039437 -1.574371 -1.227930 -1.884572 -1.316082 -5.328132 -2.913594 1.338143 -0.006006 0.161074 -0.005953 -1.659750 6.937833 -0.515500 -0.492869 3.249615 0.789640 4.653992 -5.409887 -0.913090 -0.005404 -0.130088 0.004574
6.338046 89.144265 -18.763469 142.422315 -4.421128 1.322301 0.059378 2.120643 -0.259231 0.038586 1.210973 -0.218726 0.047512 1.513738 -0.273296 0.038586 1.210973 -0.218726 36.317803 15.994008 -4.677658 51.408473 -2.303915 -15.303581 4.660018 -1.313649 0.116062 -5.015262 0.424746 90.016962 4.140033 5.647321 -0.999690 -1.764603 -1.979634 -1.458873 -0.645721 -4.229699 0.969175 -2.182693 -0.566162 -88.948628 0.845422 11.901865 1.123349 -1.298958 0.201495 0.262608 -11.526687 9.015536 -1.580960 -1.217672 -1.865886 -1.312714 -5.317699 -2.919032 1.342918 -0.005626 0.161364 -0.005873 -1.662981 6.932998 -0.523718 -0.486232 3.239681 0.790620 4.671445 -5.405382 -0.909288 -0.004849 -0.129724 0.005323
6.326536 89.143928 -18.763174 142.406760 -4.409326 1.322547 0.060909 2.117855 -0.266131 0.039289 1.209393 -0.222679 0.048379 1.511765 -0.278235 0.039289 1.209393 -0.222679 36.309899 16.002817 -4.674487 51.391547 -2.296041 -15.295609 4.667598 -1.312802 0.107049 -4.971585 0.392195 90.023633 4.102790 5.660030 -0.998586 -1.777407 -1.968987 -1.450724 -0.640418 -4.224307 0.962108 -2.175300 -0.581779 -88.942231 0.863868 11.885549 1.136618 -1.289806 0.209721 0.260347 -11.530781 8.987762 -1.587375 -1.202581 -1.848406 -1.310342 -5.309774 -2.925327 1.346502 -0.005610 0.162722 -0.004932 -1.671658 6.922808 -0.533435 -0.475263 3.230712 0.792260 4.682979 -5.401758 -0.903954 -0.004572 -0.128656 0.004755
6.315441 89.143253 -18.763274 142.395095 -4.399550 1.323137 0.063768 2.116933 -0.273109 0.040747 1.208679 -0.226660 0.050189 1.510874 -0.283206 0.040747 1.208679 -0.226660 36.299682 16.008942 -4.670610 51.370639 -2.292894 -15.286614 4.664221 -1.312849 0.097114 -4.919591 0.363047 90.032252 4.072345 5.664958 -1.000219 -1.787299 -1.955538 -1.446604 -0.642684 -4.222277 0.956279 -2.162653 -0.593287 -88.940172 0.870992 11.876697 1.146104 -1.286015 0.207366 0.263949 -11.539672 8.962145 -1.594947 -1.184843 -1.829996 -1.308588 -5.301636 -2.933955 1.349545 -0.005262 0.164703 -0.003237 -1.683589 6.913667 -0.543349 -0.463052 3.223799 0.793626 4.689207 -5.400268 -0.897060 -0.004788 -0.126980 0.003190
6.305676 89.142307 -18.764094 142.384291 -4.397531 1.321654 0.064695 2.117464 -0.279247 0.041124 1.208744 -0.229892 0.050649 1.510955 -0.287245 0.041124 1.208744 -0.229892 36.291026 16.016672 -4.660494 51.349773 -2.288754 -15.269203 4.664835 -1.315436 0.086779 -4.871639 0.345245 90.044642 4.050973 5.660918 -1.005601 -1.792925 -1.948525 -1.447290 -0.640784 -4.219750 0.949904 -2.138622 -0.598761 -88.942620 0.867702 11.874573 1.152943 -1.290002 0.199868 0.272382 -11.543585 8.944768 -1.600312 -1.169217 -1.809769 -1.306436 -5.301309 -2.944210 1.352309 -0.005094 0.166147 -0.002426 -1.691449 6.912675 -0.549230 -0.457389 3.218658 0.794704 4.690344 -5.402311 -0.890461 -0.005782 -0.124383 0.001326
6.297327 89.141184 -18.765525 142.373806 -4.403848 1.317687 0.062372 2.116971 -0.284217 0.039545 1.208604 -0.231969 0.048669 1.510780 -0.289848 0.039545 1.208604 -0.231969 36.284743 16.029338 -4.641016 51.328609 -2.279695 -15.238696 4.675601 -1.317847 0.076107 -4.836530 0.340262 90.062419 4.036626 5.649152 -1.014970 -1.791297 -1.949080 -1.450989 -0.630685 -4.210477 0.939786 -2.110119 -0.599682 -88.946375 0.859995 11.874180 1.157004 -1.300317 0.191570 0.282261 -11.539273 8.937613 -1.602860 -1.159900 -1.790400 -1.304495 -5.304688 -2.954059 1.355218 -0.004743 0.166592 -0.002208 -1.694273 6.921921 -0.549266 -0.458459 3.212383 0.794593 4.684159 -5.406168 -0.885183 -0.007612 -0.121206 -0.000109
6.289892 89.139987 -18.767178 142.361373 -4.415153 1.312664 0.059274 2.114802 -0.287150 0.037321 1.207824 -0.232863 0.045886 1.509803 -0.290972 0.037321 1.207824 -0.232863 36.276029 16.049413 -4.613413 51.298620 -2.263905 -15.195120 4.691097 -1.321138 0.063305 -4.812503 0.345355 90.084620 4.026602 5.631296 -1.027754 -1.783041 -1.954545 -1.453779 -0.615817 -4.194554 0.924378 -2.093065 -0.597236 -88.947984 0.851084 11.865476 1.156047 -1.310543 0.188484 0.289384 -11.524422 8.937160 -1.603702 -1.156647 -1.772843 -1.304589 -5.304829 -2.962431 1.358772 -0.003682 0.166314 -0.001293 -1.693322 6.938351 -0.546338 -0.459031 3.203418 0.793137 4.674680 -5.409528 -0.880395 -0.009384 -0.118122 -0.001067
6.283128 89.138828 -18.768627 142.348697 -4.428341 1.306417 0.054587 2.112210 -0.286921 0.033996 1.206646 -0.232366 0.041732 1.508329 -0.290362 0.033996 1.206647 -0.232366 36.259779 16.078197 -4.581096 51.251825 -2.240639 -15.141627 4.709316 -1.328099 0.046873 -4.790642 0.353133 90.106815 4.015527 5.606479 -1.040961 -1.772902 -1.961807 -1.455104 -0.594876 -4.175968 0.901935 -2.095844 -0.593936 -88.945379 0.844428 11.845763 1.152636 -1.315696 0.195681 0.291309 -11.502053 8.939945 -1.601494 -1.158064 -1.757032 -1.305953 -5.307752 -2.968726 1.362799 -0.002604 0.165302 -0.000779 -1.691474 6.956689 -0.543829 -0.454693 3.194530 0.790809 4.674732 -5.412945 -0.874053 -0.009716 -0.114843 -0.002006
6.276995 89.137804 -18.769598 142.340715 -4.441158 1.298163 0.043978 2.108878 -0.284521 0.027290 1.204761 -0.230655 0.033357 1.505968 -0.288245 0.027290 1.204761 -0.230655 36.232861 16.114871 -4.546346 51.183693 -2.211559 -15.080732 4.736917 -1.338658 0.030741 -4.766779 0.356721 90.124175 3.996531 5.576047 -1.053099 -1.765635 -1.964077 -1.456220 -0.569815 -4.153541 0.872404 -2.108130 -0.594086 -88.937098 0.843586 11.825623 1.152239 -1.313735 0.209416 0.286439 -11.480059 8.944360 -1.596038 -1.164467 -1.743880 -1.307938 -5.310752 -2.972542 1.367900 -0.001944 0.163375 -0.001355 -1.690115 6.973429 -0.541455 -0.451866 3.186785 0.787307 4.691335 -5.416475 -0.866086 -0.008586 -0.111051 -0.002577
6.271123 89.136942 -18.769808 142.339411 -4.449501 1.288873 0.025109 2.103574 -0.280944 0.016077 1.201662 -0.228129 0.019350 1.502087 -0.285124 0.016077 1.201663 -0.228129 36.191531 16.157221 -4.513354 51.089609 -2.179899 -15.017657 4.777392 -1.354196 0.016530 -4.740233 0.356396 90.135708 3.967933 5.546523 -1.066323 -1.765401 -1.961622 -1.455465 -0.541743 -4.126475 0.839876 -2.121201 -0.599923 -88.926737 0.848395 11.811110 1.158115 -1.305390 0.226860 0.274496 -11.462287 8.946247 -1.588650 -1.173418 -1.733704 -1.311808 -5.307636 -2.973867 1.373526 -0.001176 0.160815 -0.001065 -1.689425 6.984990 -0.536808 -0.455423 3.178452 0.783072 4.710379 -5.418641 -0.858382 -0.007414 -0.107198 -0.002958
